<!-- by TradingView --><svg viewBox="0 0 18 18" xmlns="http://www.w3.org/2000/svg" width="18" height="18"><path fill="#CC171F" d="M0 0h18v18H0z"/><path d="M8 8.97c0-.56.3-.97.87-.97h.26c1.22 0 1.07 2 .06 2H8.8c-.47 0-.8-.45-.8-1.03zm-1 .17c0 .88.87 1.86 1.65 1.86h.54c.45 0 .64-.22.81-.31V11h1V9.03C11 8.05 10.3 7 9.35 7h-.7C7.9 7 7 7.97 7 8.75v.39z" fill="#fff"/><path d="M5.64 9H3a5.28 5.28 0 005 5v-1.9C6.25 11.5 5.7 9.78 5.64 9z" fill="url(#ajerurd1n)"/><path d="M12.36 9H15a5.28 5.28 0 00-5-5v1.9c1.75.6 2.3 2.32 2.36 3.1z" fill="url(#bjerurd1n)"/><path d="M5.79 8H4c0-3.78 3.43-4.9 5-5v2.5C7.26 5.5 5.95 7 5.79 8z" fill="url(#cjerurd1n)"/><path d="M12.21 10H14c0 3.78-3.43 4.9-5 5v-2.5c1.74 0 3.05-1.5 3.21-2.5z" fill="url(#djerurd1n)"/><defs><linearGradient id="ajerurd1n" x1="4.43" y1="9" x2="8" y2="13.14" gradientUnits="userSpaceOnUse"><stop stop-color="#fff"/><stop offset="1" stop-color="#fff" stop-opacity=".65"/></linearGradient><linearGradient id="bjerurd1n" x1="13.77" y1="9" x2="10" y2="4.82" gradientUnits="userSpaceOnUse"><stop stop-color="#fff"/><stop offset="1" stop-color="#fff" stop-opacity=".65"/></linearGradient><linearGradient id="cjerurd1n" x1="4.9" y1="8" x2="9" y2="4.24" gradientUnits="userSpaceOnUse"><stop stop-color="#fff" stop-opacity=".65"/><stop offset="1" stop-color="#fff"/></linearGradient><linearGradient id="djerurd1n" x1="13.28" y1="10" x2="9" y2="13.79" gradientUnits="userSpaceOnUse"><stop stop-color="#fff" stop-opacity=".65"/><stop offset="1" stop-color="#fff"/></linearGradient></defs></svg>