<!-- by TradingView --><svg viewBox="0 0 18 18" width="18" height="18" xmlns="http://www.w3.org/2000/svg"><path fill="#F60" d="M0 0h18v18H0z"/><path fill-rule="evenodd" d="M9.161 4c-1.375.058-4.132 1.18-4.16 5.206-.03 4.026 2.761 4.87 4.16 4.789.871.023 2.656-.286 2.827-1.707.065-.197-.107-1.024-1.316-2.75-.112-.128-.338-.474-.338-.837 0-.362.226-.754.338-.905.303-.453.904-1.511.89-2.124C11.543 4.905 10.725 4 9.16 4zm-.198 1.428c-.975.041-2.929.843-2.95 3.717-.02 2.874 1.958 3.476 2.95 3.418.617.017 1.882-.204 2.003-1.218.026-.216-.097-.766-.837-1.96l-.04-.064c-.092-.142-.199-.308-.199-.533 0-.192.099-.43.175-.611.026-.062.049-.118.064-.163.059-.17.147-.342.235-.514.153-.3.306-.6.3-.879-.013-.547-.592-1.193-1.701-1.193z" fill="#fff"/></svg>