<!-- by TradingView --><svg width="18" height="18" viewBox="0 0 18 18" xmlns="http://www.w3.org/2000/svg"><path fill="#F0F3FA" d="M0 0h18v18H0z"/><path d="M9.92 4.46A1.62 1.62 0 0 0 9.18 4H8.8c-.27.08-.53.26-.79.53a3329.2 3329.2 0 0 0-4 4.17v.04l.54.56a.04.04 0 0 0 .03 0 .04.04 0 0 0 .03 0l4.21-4.36A.25.25 0 0 1 9 4.87a.24.24 0 0 1 .18.07L13.4 9.3h.04l.55-.56v-.06L9.92 4.46ZM7.09 8h3.82c.05 0 .09.03.09.08v.84c0 .05-.04.08-.1.08H7.1c-.06 0-.1-.03-.1-.08v-.84c0-.05.04-.08.1-.08Zm.13 4.6c.65.67 1.68.69 2.38.08.06-.05.12-.04.17.01l.45.48c.05.05.04.1-.01.15-1 .8-2.03.9-3.09.3a2.28 2.28 0 0 1-.5-.41 2.8 2.8 0 0 1-.1-3.7c.05-.06.1-.07.15-.02l.46.47c.05.05.06.11 0 .17-.58.73-.57 1.79.09 2.47Zm4.4-2.18a2.24 2.24 0 0 0-.55-.35 2.24 2.24 0 0 0-.61-.21c-1.2-.19-2.14.27-2.82 1.38-.04.06-.02.11.04.14l.58.3c.07.03.12.01.16-.06a1.75 1.75 0 0 1 2.3-.76c.83.41 1.2 1.41.88 2.3-.02.08 0 .14.07.17l.59.27c.06.03.1.01.13-.06.39-1.25.13-2.29-.77-3.12Z" fill="#073943"/></svg>