<!-- by TradingView --><svg viewBox="0 0 18 18" xmlns="http://www.w3.org/2000/svg" width="18" height="18"><path fill="url(#adljcb34s)" d="M0 0h18v18H0z"/><path d="M13.77 10.52c-3.63-4.03-7.2-3-9.57.06l-.14-.64c1.25-1.41 5.06-5 9.85-.07l-.14.65z" fill="#fff"/><path d="M5.08 12.23l-.28-.5c.76-4.21 6.9-4.66 8.4-.4l-.3.81c-1.07-4.7-7.34-4.11-7.82.1z" fill="#fff"/><path d="M4 9.15l.01-.57a6.4 6.4 0 019.89-.14l.1.68a6.29 6.29 0 00-10 .03z" fill="#fff"/><path d="M13.8 7.57c-2.62-2.4-7.18-2.48-9.65.19.04-.03-.01 0 0 0 .16-.45.24-.88.64-1.18a7.2 7.2 0 018.18-.1c.49.33.61.55.83 1.1zM6.1 13.2l-.33-.36c.8-4.3 5.9-3.78 6.5-.15l-.4.44c-.68-3.4-4.78-4.07-5.77.06z" fill="#fff"/><path d="M11.11 13.6c-.97-3-3.51-3-4.2.06l-.44-.31c1.13-3.78 4.39-2.75 5.03-.08l-.39.32zm1.4-8.14c-2.44-1.41-4.84-1.28-7.2.22a4.93 4.93 0 017.2-.22z" fill="#fff"/><path d="M9.92 14s-.15-1.55-.96-1.55C8.16 12.45 8 14 8 14l-.38-.1c-.03-1.76 2.01-3.3 2.8-.1l-.5.2z" fill="#fff"/><defs><linearGradient id="adljcb34s" x1="3.35" y1="3.12" x2="21.9" y2="24.43" gradientUnits="userSpaceOnUse"><stop stop-color="#1A1E21"/><stop offset="1" stop-color="#06060A"/></linearGradient></defs></svg>