<!-- by TradingView --><svg viewBox="0 0 18 18" xmlns="http://www.w3.org/2000/svg" width="18" height="18"><path fill="#00488F" d="M0 0h18v18H0z"/><circle cx="9" cy="9" r="2" fill="#fff"/><path d="M10.85 7.26l2.53-2.75A3.93 3.93 0 0011.54 4 4.85 4.85 0 006.6 8.36 2.54 2.54 0 019 6.53c.94 0 1.61.49 1.86.73z" fill="url(#af5zlofwj)"/><path d="M7.15 10.79l-2.53 2.7c.47.32 1.37.51 1.84.51a4.85 4.85 0 004.95-4.36A2.54 2.54 0 019 11.47c-.9 0-1.6-.45-1.86-.68z" fill="url(#bf5zlofwj)"/><defs><linearGradient id="af5zlofwj" x1="6.59" y1="7.48" x2="13.12" y2="4.72" gradientUnits="userSpaceOnUse"><stop stop-color="#ACAEAD"/><stop offset="1" stop-color="#F3F3F5"/></linearGradient><linearGradient id="bf5zlofwj" x1="11.41" y1="10.52" x2="4.63" y2="13.68" gradientUnits="userSpaceOnUse"><stop stop-color="#ACAEAD"/><stop offset="1" stop-color="#F3F3F5"/></linearGradient></defs></svg>